<svg width="30" height="30" viewBox="0 0 30 30" fill="none" xmlns="http://www.w3.org/2000/svg">
<mask id="path-1-inside-1_306_628" fill="white">
<path d="M4 12.7778H27L22.4 25H8.6L4 12.7778ZM20.1 9.44444C20.1 8.2657 19.6154 7.13524 18.7527 6.30175C17.89 5.46825 16.72 5 15.5 5C14.28 5 13.11 5.46825 12.2473 6.30175C11.3846 7.13524 10.9 8.2657 10.9 9.44444"/>
</mask>
<path d="M4 12.7778V11.2778C3.50771 11.2778 3.04676 11.5193 2.7666 11.9241C2.48644 12.3289 2.42273 12.8454 2.59614 13.3061L4 12.7778ZM27 12.7778L28.4039 13.3061C28.5773 12.8454 28.5136 12.3289 28.2334 11.9241C27.9532 11.5193 27.4923 11.2778 27 11.2778V12.7778ZM22.4 25V26.5C23.0246 26.5 23.5838 26.1129 23.8039 25.5284L22.4 25ZM8.6 25L7.19614 25.5284C7.41615 26.1129 7.97539 26.5 8.6 26.5V25ZM18.6 9.44444C18.6 10.2729 19.2716 10.9444 20.1 10.9444C20.9284 10.9444 21.6 10.2729 21.6 9.44444H18.6ZM15.5 5V3.5V5ZM9.4 9.44444C9.4 10.2729 10.0716 10.9444 10.9 10.9444C11.7284 10.9444 12.4 10.2729 12.4 9.44444H9.4ZM4 14.2778H27V11.2778H4V14.2778ZM25.5961 12.2494L20.9961 24.4716L23.8039 25.5284L28.4039 13.3061L25.5961 12.2494ZM22.4 23.5H8.6V26.5H22.4V23.5ZM10.0039 24.4716L5.40386 12.2494L2.59614 13.3061L7.19614 25.5284L10.0039 24.4716ZM21.6 9.44444C21.6 7.8509 20.9443 6.33351 19.795 5.223L17.7104 7.38049C18.2864 7.93697 18.6 8.68051 18.6 9.44444H21.6ZM19.795 5.223C18.6473 4.11419 17.1015 3.5 15.5 3.5V6.5C16.3385 6.5 17.1327 6.82231 17.7104 7.38049L19.795 5.223ZM15.5 3.5C13.8985 3.5 12.3527 4.11419 11.205 5.223L13.2896 7.38049C13.8673 6.82231 14.6615 6.5 15.5 6.5V3.5ZM11.205 5.223C10.0557 6.33351 9.4 7.8509 9.4 9.44444H12.4C12.4 8.68051 12.7136 7.93697 13.2896 7.38049L11.205 5.223Z" fill="#3A4857" mask="url(#path-1-inside-1_306_628)"/>
</svg>
