<svg width="36" height="36" viewBox="0 0 36 36" fill="none" xmlns="http://www.w3.org/2000/svg">
<g clip-path="url(#clip0_25_2663)">
<path d="M18 36C27.9411 36 36 27.9411 36 18C36 8.05887 27.9411 0 18 0C8.05887 0 0 8.05887 0 18C0 27.9411 8.05887 36 18 36Z" fill="#1877F2"/>
<path d="M36 18C36 8.0595 27.9405 0 18 0C8.0595 0 0 8.0595 0 18C0 26.985 6.582 34.431 15.1875 35.781V23.205H10.617V18H15.1875V14.034C15.1875 9.5235 17.874 7.032 21.987 7.032C23.9565 7.032 26.016 7.383 26.016 7.383V11.8125H23.745C21.5085 11.8125 20.811 13.2 20.811 14.6235V18H25.803L25.005 23.2035H20.811V35.781C29.418 34.431 36 26.985 36 18Z" fill="#1877F2"/>
<path d="M25.0064 23.2035L25.8044 17.9985H20.8124V14.625C20.8124 13.2 21.5099 11.814 23.7464 11.814H26.0159V7.383C26.0159 7.383 23.9564 7.0305 21.9869 7.0305C17.8754 7.0305 15.1874 9.522 15.1874 14.034V18H10.6169V23.2035H15.1874V35.781C17.051 36.0734 18.9488 36.0734 20.8124 35.781V23.2035H25.0064Z" fill="white"/>
</g>
<defs>
<clipPath id="clip0_25_2663">
<rect width="36" height="36" fill="white"/>
</clipPath>
</defs>
</svg>
