<svg width="36" height="36" viewBox="0 0 36 36" fill="none" xmlns="http://www.w3.org/2000/svg">
<g clip-path="url(#clip0_25_2671)">
<path d="M18 36C27.9411 36 36 27.9411 36 18C36 8.05887 27.9411 0 18 0C8.05887 0 0 8.05887 0 18C0 27.9411 8.05887 36 18 36Z" fill="#F00075"/>
<path d="M18.0001 9.2865C20.8381 9.2865 21.1741 9.2985 22.2946 9.3495C23.3311 9.396 23.8936 9.57 24.2686 9.7155C24.7306 9.885 25.1476 10.1565 25.4911 10.5105C25.8436 10.8525 26.1151 11.271 26.2861 11.7315C26.4301 12.1065 26.6041 12.669 26.6506 13.7055C26.7031 14.826 26.7136 15.162 26.7136 18C26.7136 20.838 26.7031 21.174 26.6506 22.2945C26.6041 23.331 26.4316 23.8935 26.2846 24.2685C26.1079 24.7268 25.8372 25.1431 25.49 25.4905C25.1428 25.838 24.7267 26.109 24.2686 26.286C23.8936 26.43 23.3311 26.604 22.2946 26.6505C21.1741 26.703 20.8396 26.7135 18.0001 26.7135C15.1621 26.7135 14.8261 26.7015 13.7056 26.6505C12.6706 26.604 12.1066 26.4315 11.7316 26.2845C11.2703 26.114 10.8531 25.8423 10.5106 25.4895C10.1577 25.1469 9.8861 24.7297 9.71556 24.2685C9.57006 23.8935 9.39606 23.331 9.34956 22.2945C9.29856 21.174 9.28656 20.838 9.28656 18C9.28656 15.162 9.29856 14.826 9.34956 13.7055C9.39606 12.6705 9.57006 12.1065 9.71556 11.7315C9.88506 11.271 10.1566 10.8525 10.5106 10.5105C10.8526 10.1565 11.2711 9.885 11.7316 9.7155C12.1066 9.57 12.6691 9.396 13.7056 9.3495C14.8261 9.2985 15.1621 9.2865 18.0001 9.2865ZM18.0001 7.3725C15.1141 7.3725 14.7526 7.3845 13.6186 7.4355C12.4876 7.488 11.7136 7.6665 11.0386 7.9305C10.3294 8.19724 9.68698 8.61546 9.15606 9.156C8.61606 9.687 8.19606 10.329 7.93056 11.0385C7.66806 11.7135 7.48806 12.4875 7.43556 13.6185C7.38456 14.751 7.37256 15.114 7.37256 18C7.37256 20.886 7.38456 21.249 7.43706 22.3815C7.48806 23.5125 7.66806 24.2865 7.93056 24.9615C8.19756 25.671 8.61606 26.313 9.15606 26.844C9.68706 27.384 10.3291 27.804 11.0386 28.0695C11.7136 28.332 12.4876 28.512 13.6186 28.5645C14.7526 28.6155 15.1141 28.6275 18.0001 28.6275C20.8861 28.6275 21.2491 28.6155 22.3816 28.5645C23.5141 28.512 24.2866 28.332 24.9616 28.0695C25.6678 27.7967 26.3092 27.3793 26.8447 26.8441C27.3802 26.3088 27.7979 25.6676 28.0711 24.9615C28.3336 24.2865 28.5121 23.5125 28.5646 22.3815C28.6156 21.249 28.6276 20.886 28.6276 18C28.6276 15.114 28.6156 14.751 28.5646 13.6185C28.5121 12.4875 28.3336 11.7135 28.0696 11.0385C27.8028 10.3293 27.3846 9.68691 26.8441 9.156C26.3131 8.61546 25.6707 8.19724 24.9616 7.9305C24.2866 7.6665 23.5141 7.488 22.3816 7.4355C21.2491 7.3845 20.8861 7.3725 18.0016 7.3725H18.0001Z" fill="white"/>
<path d="M18 12.543C17.2757 12.531 16.5562 12.6633 15.8835 12.9322C15.2108 13.2011 14.5984 13.6012 14.0819 14.1091C13.5655 14.6171 13.1553 15.2229 12.8753 15.891C12.5953 16.5591 12.451 17.2763 12.451 18.0007C12.451 18.7252 12.5953 19.4424 12.8753 20.1105C13.1553 20.7786 13.5655 21.3844 14.0819 21.8923C14.5984 22.4003 15.2108 22.8004 15.8835 23.0693C16.5562 23.3382 17.2757 23.4705 18 23.4585C19.4318 23.4348 20.797 22.8493 21.8012 21.8284C22.8053 20.8074 23.368 19.4328 23.368 18.0007C23.368 16.5687 22.8053 15.1941 21.8012 14.1731C20.797 13.1522 19.4318 12.5667 18 12.543ZM18 21.543C17.5287 21.5527 17.0602 21.4682 16.622 21.2946C16.1837 21.1209 15.7845 20.8616 15.4478 20.5317C15.111 20.2018 14.8435 19.808 14.6608 19.3734C14.4782 18.9388 14.3841 18.4722 14.3841 18.0007C14.3841 17.5293 14.4782 17.0627 14.6608 16.6281C14.8435 16.1935 15.111 15.7997 15.4478 15.4698C15.7845 15.1399 16.1837 14.8806 16.622 14.7069C17.0602 14.5333 17.5287 14.4488 18 14.4585C18.9269 14.4776 19.8093 14.8592 20.4581 15.5214C21.1068 16.1836 21.4701 17.0737 21.4701 18.0007C21.4701 18.9278 21.1068 19.8179 20.4581 20.4801C19.8093 21.1423 18.9269 21.5239 18 21.543ZM23.673 13.602C24.0112 13.602 24.3355 13.4677 24.5746 13.2286C24.8137 12.9895 24.948 12.6652 24.948 12.327C24.948 11.9889 24.8137 11.6645 24.5746 11.4254C24.3355 11.1863 24.0112 11.052 23.673 11.052C23.3349 11.052 23.0106 11.1863 22.7715 11.4254C22.5324 11.6645 22.398 11.9889 22.398 12.327C22.398 12.6652 22.5324 12.9895 22.7715 13.2286C23.0106 13.4677 23.3349 13.602 23.673 13.602Z" fill="white"/>
</g>
<defs>
<clipPath id="clip0_25_2671">
<rect width="36" height="36" fill="white"/>
</clipPath>
</defs>
</svg>
