<svg width="30" height="30" viewBox="0 0 30 30" fill="none" xmlns="http://www.w3.org/2000/svg">
<path d="M20.209 5.75C20.8664 5.75 21.5187 5.88534 22.1279 6.14844C22.7372 6.41157 23.2933 6.79765 23.7627 7.28711C24.2324 7.77643 24.6065 8.35948 24.8623 9.00293C25.1181 9.64633 25.25 10.337 25.25 11.0352C25.25 11.7334 25.1181 12.4249 24.8623 13.0684C24.6065 13.7116 24.2322 14.294 23.7627 14.7832L22.6465 15.9463L14.999 23.916L7.35254 15.9463L6.2373 14.7832C5.28849 13.7943 4.75 12.4466 4.75 11.0352C4.75006 9.62383 5.28855 8.27599 6.2373 7.28711C7.18508 6.2994 8.46374 5.75098 9.79004 5.75098C11.1163 5.751 12.395 6.29937 13.3428 7.28711L14.459 8.4502C14.6004 8.59747 14.7958 8.68066 15 8.68066C15.2042 8.68059 15.3996 8.59755 15.541 8.4502L16.6562 7.28711C17.1256 6.79765 17.6818 6.41157 18.291 6.14844C18.9001 5.8854 19.5517 5.75007 20.209 5.75Z" stroke="#3A4857" stroke-width="1.5" stroke-linecap="round" stroke-linejoin="round"/>
</svg>
