<svg width="37" height="36" viewBox="0 0 37 36" fill="none" xmlns="http://www.w3.org/2000/svg">
<g clip-path="url(#clip0_28_3275)">
<path d="M12.9257 0.997803C15.9593 0.705403 18.9197 0.996741 21.6259 2.58862C24.9629 4.5567 27.0188 7.45652 27.7645 11.2703H27.7635C27.7859 11.3385 27.803 11.4038 27.8251 11.4861C28.9548 10.359 30.3008 10.039 31.7841 10.1101H31.785C32.2186 10.1342 32.6456 10.1101 33.1024 10.1101H33.1044C33.3919 10.1164 33.6177 10.1718 33.7723 10.3191C33.9273 10.4667 33.9901 10.6866 34.0028 10.9685C34.086 12.5378 33.8446 14.0116 32.6786 15.1892C33.288 15.5975 33.9222 15.9591 34.4315 16.4333C35.3168 17.2438 35.7138 18.3153 35.7509 19.5134C35.7631 19.9038 35.7631 20.3066 35.7509 20.697C35.7503 20.8944 35.6966 21.081 35.5858 21.2205C35.4865 21.3452 35.3452 21.4266 35.1698 21.4451L35.0927 21.449C33.9282 21.4581 32.7551 21.467 31.5848 21.4402L30.4159 21.4001C29.5025 21.3533 28.7277 20.9115 27.9725 20.2576V20.5964C28.0784 24.4088 26.7607 27.6157 24.1014 30.2781L23.8407 30.5339C22.6458 31.6805 21.5039 32.9198 20.0087 33.741C16.0107 35.9354 11.0241 35.3952 7.64246 32.3855L7.32019 32.0867C6.09431 30.8972 4.87681 29.6672 3.8407 28.3142H3.83972C2.32031 26.3169 1.62402 23.9531 1.59949 21.4353C1.56307 18.7407 1.56307 16.046 1.59949 13.3513L1.61902 12.7576C1.96952 6.6478 6.78718 1.59036 12.9257 0.997803ZM31.8514 16.6306C30.601 16.4655 29.3141 16.5881 28.0184 16.5935C27.758 18.2077 29.0342 19.8597 30.7548 19.9753H30.7557C31.9211 20.0577 33.0688 19.9916 34.2675 19.988C34.3704 18.2469 33.4083 16.8252 31.8524 16.6306H31.8514ZM32.493 11.613C31.0232 11.489 29.7609 11.8505 28.9442 12.4919C28.1335 13.1287 27.7624 14.039 28.0477 15.0427C29.4922 15.1938 30.6976 14.8851 31.4921 14.2644C32.2774 13.6507 32.669 12.727 32.493 11.613ZM3.07312 21.3972C3.0852 23.4522 3.67369 25.3516 4.75671 27.0964C5.70689 28.6239 7.04229 29.8023 8.33289 31.032C11.9949 34.5259 17.6253 34.5028 21.288 31.0203C22.0273 30.3173 22.7658 29.5908 23.4677 28.8406V28.8396C25.3568 26.83 26.4027 24.438 26.4989 21.6726C26.5473 20.2429 26.4979 18.8294 26.4979 17.405V17.3054H26.5106C26.5118 16.0981 26.5342 14.8856 26.5106 13.6824C26.4564 11.271 25.8689 9.20582 24.7567 7.48413C23.7138 5.86986 22.2062 4.55175 20.2333 3.53394L19.8329 3.33472C18.2489 2.57948 16.5516 2.40111 14.8124 2.38452L14.0653 2.38647C8.03977 2.48274 3.13325 7.36554 3.07312 13.4021C3.04886 16.0709 3.04886 18.7275 3.07312 21.3962V21.3972Z" fill="#3A4857" stroke="#3A4857" stroke-width="0.2"/>
<path d="M22.8473 13.314C23.7332 13.2954 24.4559 13.5983 24.9401 14.1079C25.424 14.6174 25.6624 15.3257 25.5934 16.104C25.5572 16.5198 25.5552 16.941 25.5367 17.3706C25.5185 17.7969 25.4847 18.2262 25.3854 18.6421C24.7052 21.4866 21.5792 23.3418 18.8414 22.5737C18.4408 22.461 18.0676 22.2616 17.7164 22.0679L17.7155 22.0669C15.8368 21.014 13.8966 20.9104 12.0631 21.9819C8.5264 24.0345 3.96548 21.5357 3.98987 17.187L3.98596 16.2954C3.98907 15.997 4.0018 15.698 4.0387 15.4028C4.16605 14.2878 5.02968 13.4632 6.14417 13.3745L6.67834 13.3433C7.2143 13.3243 7.75442 13.3374 8.28772 13.3374L11.5475 13.3267C12.635 13.3251 13.7241 13.3257 14.816 13.3257C17.4993 13.3257 20.1782 13.3625 22.8463 13.314H22.8473ZM6.6012 14.7993C6.17634 14.7993 5.89883 14.8912 5.72424 15.0669C5.54922 15.2432 5.45772 15.5247 5.45178 15.9507V17.2231C5.45178 20.466 8.822 22.1366 11.3444 20.6919C13.6713 19.3622 16.0998 19.4625 18.4449 20.7886L18.7184 20.9331C18.9972 21.0675 19.2905 21.1697 19.5875 21.2134H19.5865C21.6687 21.5091 23.6692 20.0529 24.024 17.9829C24.1193 17.4231 24.108 16.8268 24.108 16.2407V16.2397C24.1141 15.6118 24.0437 15.2708 23.8531 15.0776C23.6628 14.8847 23.3252 14.812 22.7037 14.812H22.7028C20.0821 14.7999 17.4492 14.7993 14.816 14.7993H6.6012Z" fill="#3A4857" stroke="#3A4857" stroke-width="0.2"/>
<path d="M19.5609 16.5171C20.2692 16.5173 20.85 17.0815 20.85 17.7817C20.8499 18.4684 20.2827 19.0334 19.5853 19.0337L19.5863 19.0347C18.8753 19.0476 18.2948 18.4675 18.308 17.7671C18.3093 17.0803 18.8768 16.5302 19.559 16.5171H19.5609Z" fill="#3A4857" stroke="#3A4857" stroke-width="0.2"/>
<path d="M10.0385 16.5168C10.7608 16.5431 11.2901 17.1109 11.264 17.8333V17.8342C11.2375 18.5338 10.668 19.0474 9.97302 19.0344C9.27387 19.0212 8.74664 18.4655 8.74646 17.7698C8.74646 17.0448 9.31588 16.5037 10.0375 16.5168H10.0385Z" fill="#3A4857" stroke="#3A4857" stroke-width="0.2"/>
</g>
<defs>
<clipPath id="clip0_28_3275">
<rect width="36" height="35" fill="white" transform="translate(0.666748 0.5)"/>
</clipPath>
</defs>
</svg>
