<svg width="36" height="36" viewBox="0 0 36 36" fill="none" xmlns="http://www.w3.org/2000/svg">
<g clip-path="url(#clip0_25_2682)">
<path d="M18 36C27.941 36 35.9997 27.9413 35.9997 18.0003C35.9997 8.05937 27.941 0.000640869 18 0.000640869C8.0591 0.000640869 0.000366211 8.05937 0.000366211 18.0003C0.000366211 27.9413 8.0591 36 18 36Z" fill="#CB2027"/>
<path d="M19.4529 24.1037C18.0921 23.9985 17.5204 23.3237 16.4532 22.6759C15.8667 25.7533 15.1499 28.7033 13.0267 30.2444C12.3705 25.5932 13.9887 22.0996 14.7401 18.3914C13.4592 16.2353 14.8941 11.8953 17.5958 12.9647C20.9209 14.2796 14.717 20.9821 18.8818 21.8192C23.2298 22.6932 25.0048 14.2748 22.3083 11.5366C18.4124 7.58323 10.9681 11.4467 11.8835 17.1061C12.1065 18.4896 13.5362 18.9096 12.4546 20.8188C9.9612 20.2666 9.21745 18.3 9.31306 15.6782C9.4674 11.3867 13.1692 8.38186 16.8822 7.96602C21.578 7.44045 25.9853 9.69033 26.5937 14.1073C27.2781 19.0925 24.4738 24.4913 19.4529 24.1037Z" fill="#F1F2F2"/>
</g>
<defs>
<clipPath id="clip0_25_2682">
<rect width="36" height="36" fill="white"/>
</clipPath>
</defs>
</svg>
