<svg width="35" height="34" viewBox="0 0 35 34" fill="none" xmlns="http://www.w3.org/2000/svg">
<g clip-path="url(#clip0_25_3024)">
<path d="M23 4.25H1.75V22.6667H23V4.25Z" stroke="#3A4857" stroke-width="2" stroke-linecap="round" stroke-linejoin="round"/>
<path d="M23 11.3333H28.6667L32.9167 15.5833V22.6666H23V11.3333Z" stroke="#3A4857" stroke-width="2" stroke-linecap="round" stroke-linejoin="round"/>
<path d="M8.12504 29.7501C10.081 29.7501 11.6667 28.1644 11.6667 26.2084C11.6667 24.2524 10.081 22.6667 8.12504 22.6667C6.16903 22.6667 4.58337 24.2524 4.58337 26.2084C4.58337 28.1644 6.16903 29.7501 8.12504 29.7501Z" stroke="#3A4857" stroke-width="2" stroke-linecap="round" stroke-linejoin="round"/>
<path d="M26.5417 29.7501C28.4977 29.7501 30.0833 28.1644 30.0833 26.2084C30.0833 24.2524 28.4977 22.6667 26.5417 22.6667C24.5857 22.6667 23 24.2524 23 26.2084C23 28.1644 24.5857 29.7501 26.5417 29.7501Z" stroke="#3A4857" stroke-width="2" stroke-linecap="round" stroke-linejoin="round"/>
</g>
<defs>
<clipPath id="clip0_25_3024">
<rect width="34" height="34" fill="white" transform="translate(0.333374)"/>
</clipPath>
</defs>
</svg>
