<svg width="30" height="30" viewBox="0 0 30 30" fill="none" xmlns="http://www.w3.org/2000/svg">
<path d="M15 16.5C16.5202 16.5 19.4143 16.4745 21.9229 17.1768C23.1732 17.5268 24.2618 18.0415 25.0293 18.7734C25.7743 19.4841 26.25 20.429 26.25 21.75C26.25 23.4068 24.9068 24.75 23.25 24.75H6.75C5.09315 24.75 3.75 23.4068 3.75 21.75C3.75004 20.429 4.2257 19.4841 4.9707 18.7734C5.73816 18.0415 6.82679 17.5268 8.07715 17.1768C10.5857 16.4745 13.4798 16.5 15 16.5Z" stroke="#3A4857" stroke-width="1.5" stroke-linecap="round" stroke-linejoin="round"/>
<path d="M14.5 5.75C16.571 5.75 18.25 7.42894 18.25 9.5C18.25 11.5711 16.571 13.25 14.5 13.25C12.4289 13.25 10.75 11.5711 10.75 9.5C10.75 7.42893 12.4289 5.75 14.5 5.75Z" stroke="#3A4857" stroke-width="1.5" stroke-linecap="round" stroke-linejoin="round"/>
</svg>
