<svg width="36" height="36" viewBox="0 0 36 36" fill="none" xmlns="http://www.w3.org/2000/svg">
<g clip-path="url(#clip0_25_2678)">
<path d="M18 36C27.9411 36 36 27.9411 36 18C36 8.05887 27.9411 0 18 0C8.05887 0 0 8.05887 0 18C0 27.9411 8.05887 36 18 36Z" fill="#2DAAE1"/>
<path d="M22.3885 10H24.9953L19.3002 16.7774L26 26H20.7533L16.6446 20.4066L11.9433 26H9.33491L15.4263 18.7508L9 10H14.3783L18.0922 15.1126L22.3869 10H22.3885ZM21.4736 24.3754H22.918L13.5942 11.5393H12.0441L21.4736 24.3754Z" fill="white"/>
</g>
<defs>
<clipPath id="clip0_25_2678">
<rect width="36" height="36" fill="white"/>
</clipPath>
</defs>
</svg>
